<mxfile host="app.diagrams.net" modified="2024-07-14T12:53:07.386Z" agent="Mozilla/5.0 (Windows NT 10.0; Win64; x64) AppleWebKit/537.36 (KHTML, like Gecko) Chrome/126.0.0.0 Safari/537.36" etag="2CviBqY46EvTe5Dd5K08" version="24.6.5" type="device">
  <diagram name="Page-1" id="TbTFKm__2YyOvWIT1WuD">
    <mxGraphModel dx="1363" dy="911" grid="1" gridSize="10" guides="1" tooltips="1" connect="1" arrows="1" fold="1" page="1" pageScale="1" pageWidth="827" pageHeight="1169" math="0" shadow="0">
      <root>
        <mxCell id="0" />
        <mxCell id="1" parent="0" />
        <mxCell id="0mTfbPD0pUQ-GVZMF4o4-3" style="edgeStyle=orthogonalEdgeStyle;rounded=0;orthogonalLoop=1;jettySize=auto;html=1;" edge="1" parent="1" source="NzhI3UWQht6o8jug8BFg-19" target="0mTfbPD0pUQ-GVZMF4o4-1">
          <mxGeometry relative="1" as="geometry" />
        </mxCell>
        <mxCell id="NzhI3UWQht6o8jug8BFg-19" value="Login" style="rounded=1;whiteSpace=wrap;html=1;" parent="1" vertex="1">
          <mxGeometry x="220" y="10" width="90" height="20" as="geometry" />
        </mxCell>
        <mxCell id="0mTfbPD0pUQ-GVZMF4o4-5" value="" style="edgeStyle=orthogonalEdgeStyle;rounded=0;orthogonalLoop=1;jettySize=auto;html=1;" edge="1" parent="1" source="0mTfbPD0pUQ-GVZMF4o4-1" target="0mTfbPD0pUQ-GVZMF4o4-4">
          <mxGeometry relative="1" as="geometry" />
        </mxCell>
        <mxCell id="0mTfbPD0pUQ-GVZMF4o4-1" value="&lt;font style=&quot;font-size: 11px;&quot;&gt;Teriama permintaan Login (Username,Password)&lt;/font&gt;" style="rounded=1;whiteSpace=wrap;html=1;" vertex="1" parent="1">
          <mxGeometry x="190" y="50" width="150" height="30" as="geometry" />
        </mxCell>
        <mxCell id="0mTfbPD0pUQ-GVZMF4o4-2" style="edgeStyle=orthogonalEdgeStyle;rounded=0;orthogonalLoop=1;jettySize=auto;html=1;exitX=0.5;exitY=1;exitDx=0;exitDy=0;" edge="1" parent="1" source="0mTfbPD0pUQ-GVZMF4o4-1" target="0mTfbPD0pUQ-GVZMF4o4-1">
          <mxGeometry relative="1" as="geometry" />
        </mxCell>
        <mxCell id="0mTfbPD0pUQ-GVZMF4o4-8" value="" style="edgeStyle=orthogonalEdgeStyle;rounded=0;orthogonalLoop=1;jettySize=auto;html=1;" edge="1" parent="1" source="0mTfbPD0pUQ-GVZMF4o4-4" target="0mTfbPD0pUQ-GVZMF4o4-7">
          <mxGeometry relative="1" as="geometry" />
        </mxCell>
        <mxCell id="0mTfbPD0pUQ-GVZMF4o4-4" value="&lt;font style=&quot;font-size: 11px;&quot;&gt;Query Database untuk Username (SELECT FROM llogin WHERE Username = ?)&lt;/font&gt;" style="rounded=1;whiteSpace=wrap;html=1;" vertex="1" parent="1">
          <mxGeometry x="170" y="100" width="190" height="40" as="geometry" />
        </mxCell>
        <mxCell id="0mTfbPD0pUQ-GVZMF4o4-10" value="" style="edgeStyle=orthogonalEdgeStyle;rounded=0;orthogonalLoop=1;jettySize=auto;html=1;" edge="1" parent="1" source="0mTfbPD0pUQ-GVZMF4o4-7" target="0mTfbPD0pUQ-GVZMF4o4-9">
          <mxGeometry relative="1" as="geometry" />
        </mxCell>
        <mxCell id="0mTfbPD0pUQ-GVZMF4o4-12" value="No" style="edgeLabel;html=1;align=center;verticalAlign=middle;resizable=0;points=[];" vertex="1" connectable="0" parent="0mTfbPD0pUQ-GVZMF4o4-10">
          <mxGeometry x="-0.0146" y="-2" relative="1" as="geometry">
            <mxPoint as="offset" />
          </mxGeometry>
        </mxCell>
        <mxCell id="0mTfbPD0pUQ-GVZMF4o4-14" value="" style="edgeStyle=orthogonalEdgeStyle;rounded=0;orthogonalLoop=1;jettySize=auto;html=1;" edge="1" parent="1" source="0mTfbPD0pUQ-GVZMF4o4-7" target="0mTfbPD0pUQ-GVZMF4o4-13">
          <mxGeometry relative="1" as="geometry" />
        </mxCell>
        <mxCell id="0mTfbPD0pUQ-GVZMF4o4-24" value="Yes" style="edgeLabel;html=1;align=center;verticalAlign=middle;resizable=0;points=[];" vertex="1" connectable="0" parent="0mTfbPD0pUQ-GVZMF4o4-14">
          <mxGeometry x="-0.6743" relative="1" as="geometry">
            <mxPoint as="offset" />
          </mxGeometry>
        </mxCell>
        <mxCell id="0mTfbPD0pUQ-GVZMF4o4-7" value="&lt;font style=&quot;font-size: 11px;&quot;&gt;apakah Username valid/cocok ?&lt;/font&gt;" style="rhombus;whiteSpace=wrap;html=1;" vertex="1" parent="1">
          <mxGeometry x="215" y="160" width="100" height="100" as="geometry" />
        </mxCell>
        <mxCell id="0mTfbPD0pUQ-GVZMF4o4-9" value="&lt;font style=&quot;font-size: 11px;&quot;&gt;Respond edngan &quot;Invalid Username&quot;&lt;/font&gt;" style="rounded=1;whiteSpace=wrap;html=1;" vertex="1" parent="1">
          <mxGeometry x="360" y="195" width="150" height="30" as="geometry" />
        </mxCell>
        <mxCell id="0mTfbPD0pUQ-GVZMF4o4-16" value="" style="edgeStyle=orthogonalEdgeStyle;rounded=0;orthogonalLoop=1;jettySize=auto;html=1;" edge="1" parent="1" source="0mTfbPD0pUQ-GVZMF4o4-13" target="0mTfbPD0pUQ-GVZMF4o4-15">
          <mxGeometry relative="1" as="geometry" />
        </mxCell>
        <mxCell id="0mTfbPD0pUQ-GVZMF4o4-13" value="&lt;font style=&quot;font-size: 11px;&quot;&gt;Periksa jika hash password dimulai dengan &#39;$2b$&#39;&lt;/font&gt;" style="rounded=1;whiteSpace=wrap;html=1;" vertex="1" parent="1">
          <mxGeometry x="190" y="290" width="150" height="30" as="geometry" />
        </mxCell>
        <mxCell id="0mTfbPD0pUQ-GVZMF4o4-23" value="" style="edgeStyle=orthogonalEdgeStyle;rounded=0;orthogonalLoop=1;jettySize=auto;html=1;" edge="1" parent="1" source="0mTfbPD0pUQ-GVZMF4o4-15" target="0mTfbPD0pUQ-GVZMF4o4-21">
          <mxGeometry relative="1" as="geometry" />
        </mxCell>
        <mxCell id="0mTfbPD0pUQ-GVZMF4o4-15" value="&lt;font style=&quot;font-size: 11px;&quot;&gt;Periksa jika Hash Password dimulai dengan &#39;$2b$&#39;&lt;/font&gt;" style="rounded=1;whiteSpace=wrap;html=1;" vertex="1" parent="1">
          <mxGeometry x="190" y="340" width="150" height="40" as="geometry" />
        </mxCell>
        <mxCell id="0mTfbPD0pUQ-GVZMF4o4-19" value="&lt;font style=&quot;font-size: 11px;&quot;&gt;Return &quot;Hash Password Tidak Valid&quot;&lt;/font&gt;" style="rounded=1;whiteSpace=wrap;html=1;" vertex="1" parent="1">
          <mxGeometry x="350" y="425" width="150" height="30" as="geometry" />
        </mxCell>
        <mxCell id="0mTfbPD0pUQ-GVZMF4o4-22" value="" style="edgeStyle=orthogonalEdgeStyle;rounded=0;orthogonalLoop=1;jettySize=auto;html=1;" edge="1" parent="1" source="0mTfbPD0pUQ-GVZMF4o4-21" target="0mTfbPD0pUQ-GVZMF4o4-19">
          <mxGeometry relative="1" as="geometry" />
        </mxCell>
        <mxCell id="0mTfbPD0pUQ-GVZMF4o4-25" value="No" style="edgeLabel;html=1;align=center;verticalAlign=middle;resizable=0;points=[];" vertex="1" connectable="0" parent="0mTfbPD0pUQ-GVZMF4o4-22">
          <mxGeometry x="-0.2706" y="-2" relative="1" as="geometry">
            <mxPoint as="offset" />
          </mxGeometry>
        </mxCell>
        <mxCell id="0mTfbPD0pUQ-GVZMF4o4-27" value="" style="edgeStyle=orthogonalEdgeStyle;rounded=0;orthogonalLoop=1;jettySize=auto;html=1;" edge="1" parent="1" source="0mTfbPD0pUQ-GVZMF4o4-21" target="0mTfbPD0pUQ-GVZMF4o4-26">
          <mxGeometry relative="1" as="geometry" />
        </mxCell>
        <mxCell id="0mTfbPD0pUQ-GVZMF4o4-32" value="Yes" style="edgeLabel;html=1;align=center;verticalAlign=middle;resizable=0;points=[];" vertex="1" connectable="0" parent="0mTfbPD0pUQ-GVZMF4o4-27">
          <mxGeometry x="-0.7657" y="-2" relative="1" as="geometry">
            <mxPoint as="offset" />
          </mxGeometry>
        </mxCell>
        <mxCell id="0mTfbPD0pUQ-GVZMF4o4-21" value="&lt;font style=&quot;font-size: 11px;&quot;&gt;Apakah Hash Valid&lt;/font&gt;" style="rhombus;whiteSpace=wrap;html=1;" vertex="1" parent="1">
          <mxGeometry x="222.5" y="400" width="85" height="80" as="geometry" />
        </mxCell>
        <mxCell id="0mTfbPD0pUQ-GVZMF4o4-29" value="" style="edgeStyle=orthogonalEdgeStyle;rounded=0;orthogonalLoop=1;jettySize=auto;html=1;" edge="1" parent="1" source="0mTfbPD0pUQ-GVZMF4o4-26" target="0mTfbPD0pUQ-GVZMF4o4-28">
          <mxGeometry relative="1" as="geometry" />
        </mxCell>
        <mxCell id="0mTfbPD0pUQ-GVZMF4o4-26" value="&lt;font style=&quot;font-size: 11px;&quot;&gt;Compare Password yang diberikan dengan Hash&amp;nbsp;&lt;/font&gt;" style="rounded=1;whiteSpace=wrap;html=1;" vertex="1" parent="1">
          <mxGeometry x="190" y="510" width="150" height="30" as="geometry" />
        </mxCell>
        <mxCell id="0mTfbPD0pUQ-GVZMF4o4-34" value="" style="edgeStyle=orthogonalEdgeStyle;rounded=0;orthogonalLoop=1;jettySize=auto;html=1;" edge="1" parent="1" source="0mTfbPD0pUQ-GVZMF4o4-28" target="0mTfbPD0pUQ-GVZMF4o4-33">
          <mxGeometry relative="1" as="geometry" />
        </mxCell>
        <mxCell id="0mTfbPD0pUQ-GVZMF4o4-35" value="No" style="edgeLabel;html=1;align=center;verticalAlign=middle;resizable=0;points=[];" vertex="1" connectable="0" parent="0mTfbPD0pUQ-GVZMF4o4-34">
          <mxGeometry x="0.1051" y="1" relative="1" as="geometry">
            <mxPoint x="-7" y="1" as="offset" />
          </mxGeometry>
        </mxCell>
        <mxCell id="0mTfbPD0pUQ-GVZMF4o4-37" value="" style="edgeStyle=orthogonalEdgeStyle;rounded=0;orthogonalLoop=1;jettySize=auto;html=1;" edge="1" parent="1" source="0mTfbPD0pUQ-GVZMF4o4-28" target="0mTfbPD0pUQ-GVZMF4o4-36">
          <mxGeometry relative="1" as="geometry" />
        </mxCell>
        <mxCell id="0mTfbPD0pUQ-GVZMF4o4-38" value="Yes" style="edgeLabel;html=1;align=center;verticalAlign=middle;resizable=0;points=[];" vertex="1" connectable="0" parent="0mTfbPD0pUQ-GVZMF4o4-37">
          <mxGeometry x="-0.2697" y="-1" relative="1" as="geometry">
            <mxPoint y="3" as="offset" />
          </mxGeometry>
        </mxCell>
        <mxCell id="0mTfbPD0pUQ-GVZMF4o4-28" value="&lt;font style=&quot;font-size: 11px;&quot;&gt;Apakah Password Valid&lt;/font&gt;" style="rhombus;whiteSpace=wrap;html=1;" vertex="1" parent="1">
          <mxGeometry x="221.25" y="560" width="87.5" height="95" as="geometry" />
        </mxCell>
        <mxCell id="0mTfbPD0pUQ-GVZMF4o4-33" value="&lt;font style=&quot;font-size: 11px;&quot;&gt;Respond dengan Password Tidak Valid&lt;/font&gt;" style="rounded=1;whiteSpace=wrap;html=1;" vertex="1" parent="1">
          <mxGeometry x="360" y="592.5" width="150" height="30" as="geometry" />
        </mxCell>
        <mxCell id="0mTfbPD0pUQ-GVZMF4o4-40" value="" style="edgeStyle=orthogonalEdgeStyle;rounded=0;orthogonalLoop=1;jettySize=auto;html=1;" edge="1" parent="1" source="0mTfbPD0pUQ-GVZMF4o4-36" target="0mTfbPD0pUQ-GVZMF4o4-39">
          <mxGeometry relative="1" as="geometry" />
        </mxCell>
        <mxCell id="0mTfbPD0pUQ-GVZMF4o4-36" value="&lt;font style=&quot;font-size: 11px;&quot;&gt;Generate JWT Token, jwt.sign({username, id} dan JWT Secret yang Berlaku 1 Jam&lt;/font&gt;" style="rounded=1;whiteSpace=wrap;html=1;" vertex="1" parent="1">
          <mxGeometry x="185" y="690" width="160" height="40" as="geometry" />
        </mxCell>
        <mxCell id="0mTfbPD0pUQ-GVZMF4o4-42" value="" style="edgeStyle=orthogonalEdgeStyle;rounded=0;orthogonalLoop=1;jettySize=auto;html=1;" edge="1" parent="1" source="0mTfbPD0pUQ-GVZMF4o4-39" target="0mTfbPD0pUQ-GVZMF4o4-41">
          <mxGeometry relative="1" as="geometry" />
        </mxCell>
        <mxCell id="0mTfbPD0pUQ-GVZMF4o4-39" value="&lt;span style=&quot;font-size: 11px;&quot;&gt;Catat Waktu Login ke Tabel user_session (&lt;/span&gt;INSERT INTO user_sessions {(username, login_time) VALUES (?, NOW) })&lt;span style=&quot;font-size: 11px;&quot;&gt;&amp;nbsp;&lt;/span&gt;" style="rounded=1;whiteSpace=wrap;html=1;" vertex="1" parent="1">
          <mxGeometry x="150" y="750" width="230" height="50" as="geometry" />
        </mxCell>
        <mxCell id="0mTfbPD0pUQ-GVZMF4o4-44" value="" style="edgeStyle=orthogonalEdgeStyle;rounded=0;orthogonalLoop=1;jettySize=auto;html=1;" edge="1" parent="1" source="0mTfbPD0pUQ-GVZMF4o4-41" target="0mTfbPD0pUQ-GVZMF4o4-43">
          <mxGeometry relative="1" as="geometry" />
        </mxCell>
        <mxCell id="0mTfbPD0pUQ-GVZMF4o4-41" value="&lt;font style=&quot;font-size: 11px;&quot;&gt;Atur session dengan user info  &lt;/font&gt;&lt;div&gt;&lt;font style=&quot;font-size: 11px;&quot;&gt;lalu cookie dengan username&lt;br&gt;&lt;/font&gt;&lt;/div&gt;" style="rounded=1;whiteSpace=wrap;html=1;" vertex="1" parent="1">
          <mxGeometry x="190" y="820" width="150" height="40" as="geometry" />
        </mxCell>
        <mxCell id="0mTfbPD0pUQ-GVZMF4o4-46" value="" style="edgeStyle=orthogonalEdgeStyle;rounded=0;orthogonalLoop=1;jettySize=auto;html=1;" edge="1" parent="1" source="0mTfbPD0pUQ-GVZMF4o4-43" target="0mTfbPD0pUQ-GVZMF4o4-45">
          <mxGeometry relative="1" as="geometry" />
        </mxCell>
        <mxCell id="0mTfbPD0pUQ-GVZMF4o4-43" value="&lt;div&gt;&lt;font style=&quot;font-size: 11px;&quot;&gt;Kirim JWT Token ke Flask Server (POST http://localhost:5000/token)&lt;br&gt;&lt;/font&gt;&lt;/div&gt;" style="rounded=1;whiteSpace=wrap;html=1;" vertex="1" parent="1">
          <mxGeometry x="190" y="880" width="150" height="40" as="geometry" />
        </mxCell>
        <mxCell id="0mTfbPD0pUQ-GVZMF4o4-48" style="edgeStyle=orthogonalEdgeStyle;rounded=0;orthogonalLoop=1;jettySize=auto;html=1;entryX=0.5;entryY=0;entryDx=0;entryDy=0;" edge="1" parent="1" source="0mTfbPD0pUQ-GVZMF4o4-45" target="0mTfbPD0pUQ-GVZMF4o4-47">
          <mxGeometry relative="1" as="geometry" />
        </mxCell>
        <mxCell id="0mTfbPD0pUQ-GVZMF4o4-45" value="Return Token dan User ID&amp;nbsp;" style="rounded=1;whiteSpace=wrap;html=1;" vertex="1" parent="1">
          <mxGeometry x="192.5" y="950" width="145" height="20" as="geometry" />
        </mxCell>
        <mxCell id="0mTfbPD0pUQ-GVZMF4o4-47" value="End" style="rounded=1;whiteSpace=wrap;html=1;" vertex="1" parent="1">
          <mxGeometry x="236.25" y="1000" width="57.5" height="20" as="geometry" />
        </mxCell>
      </root>
    </mxGraphModel>
  </diagram>
</mxfile>
